<mxfile host="app.diagrams.net" modified="2024-06-19T16:07:21.998Z" agent="Mozilla/5.0 (Windows NT 10.0; Win64; x64) AppleWebKit/537.36 (KHTML, like Gecko) Chrome/125.0.0.0 Safari/537.36" etag="HFHJtjqkXZTovojwrQW5" version="24.5.5" type="device">
  <diagram name="Página-1" id="bxtANWBePFYG9ldre4Y_">
    <mxGraphModel dx="1434" dy="780" grid="1" gridSize="10" guides="1" tooltips="1" connect="1" arrows="1" fold="1" page="1" pageScale="1" pageWidth="827" pageHeight="1169" math="0" shadow="0">
      <root>
        <mxCell id="0" />
        <mxCell id="1" parent="0" />
        <mxCell id="EbjDFUz-OWnhSn3aXGN4-6" style="edgeStyle=orthogonalEdgeStyle;rounded=0;orthogonalLoop=1;jettySize=auto;html=1;exitX=0.5;exitY=1;exitDx=0;exitDy=0;entryX=0.5;entryY=0;entryDx=0;entryDy=0;" parent="1" source="EbjDFUz-OWnhSn3aXGN4-5" target="EbjDFUz-OWnhSn3aXGN4-7" edge="1">
          <mxGeometry relative="1" as="geometry">
            <mxPoint x="440" y="160" as="targetPoint" />
          </mxGeometry>
        </mxCell>
        <mxCell id="EbjDFUz-OWnhSn3aXGN4-5" value="INICIO" style="ellipse;whiteSpace=wrap;html=1;" parent="1" vertex="1">
          <mxGeometry x="370" y="20" width="160" height="80" as="geometry" />
        </mxCell>
        <mxCell id="zWWd3TG351_CrGWMwTUh-21" style="edgeStyle=none;rounded=0;orthogonalLoop=1;jettySize=auto;html=1;exitX=0.5;exitY=1;exitDx=0;exitDy=0;entryX=0.5;entryY=0;entryDx=0;entryDy=0;" edge="1" parent="1" source="EbjDFUz-OWnhSn3aXGN4-7" target="EbjDFUz-OWnhSn3aXGN4-9">
          <mxGeometry relative="1" as="geometry">
            <mxPoint x="450" y="200" as="targetPoint" />
          </mxGeometry>
        </mxCell>
        <mxCell id="EbjDFUz-OWnhSn3aXGN4-7" value="Mostrar mensaje: &quot;Ingrese el monto en dólares a convertir a bolivianos:&quot;" style="whiteSpace=wrap;html=1;" parent="1" vertex="1">
          <mxGeometry x="370" y="120" width="160" height="60" as="geometry" />
        </mxCell>
        <mxCell id="zWWd3TG351_CrGWMwTUh-25" value="" style="edgeStyle=none;rounded=0;orthogonalLoop=1;jettySize=auto;html=1;" edge="1" parent="1" source="EbjDFUz-OWnhSn3aXGN4-9" target="zWWd3TG351_CrGWMwTUh-23">
          <mxGeometry relative="1" as="geometry" />
        </mxCell>
        <mxCell id="EbjDFUz-OWnhSn3aXGN4-9" value="&lt;br&gt;&amp;nbsp;input del usuario en la variable dollars&lt;div&gt;&lt;br/&gt;&lt;/div&gt;" style="whiteSpace=wrap;html=1;" parent="1" vertex="1">
          <mxGeometry x="370" y="200" width="160" height="70" as="geometry" />
        </mxCell>
        <mxCell id="zWWd3TG351_CrGWMwTUh-41" style="edgeStyle=elbowEdgeStyle;rounded=0;orthogonalLoop=1;jettySize=auto;elbow=vertical;html=1;exitX=0.25;exitY=1;exitDx=0;exitDy=0;entryX=0.652;entryY=-0.027;entryDx=0;entryDy=0;entryPerimeter=0;" edge="1" parent="1" target="EbjDFUz-OWnhSn3aXGN4-18">
          <mxGeometry relative="1" as="geometry">
            <mxPoint x="412.5" y="510" as="sourcePoint" />
            <mxPoint x="320" y="540" as="targetPoint" />
          </mxGeometry>
        </mxCell>
        <mxCell id="EbjDFUz-OWnhSn3aXGN4-13" style="edgeStyle=none;rounded=0;orthogonalLoop=1;jettySize=auto;html=1;entryX=1;entryY=0.5;entryDx=0;entryDy=0;" parent="1" edge="1">
          <mxGeometry relative="1" as="geometry">
            <mxPoint x="525" y="485" as="sourcePoint" />
            <mxPoint x="525" y="485" as="targetPoint" />
          </mxGeometry>
        </mxCell>
        <mxCell id="EbjDFUz-OWnhSn3aXGN4-23" style="edgeStyle=none;rounded=0;orthogonalLoop=1;jettySize=auto;html=1;exitX=0.5;exitY=1;exitDx=0;exitDy=0;entryX=0.5;entryY=0;entryDx=0;entryDy=0;" parent="1" source="EbjDFUz-OWnhSn3aXGN4-16" target="EbjDFUz-OWnhSn3aXGN4-24" edge="1">
          <mxGeometry relative="1" as="geometry">
            <mxPoint x="425" y="670" as="targetPoint" />
          </mxGeometry>
        </mxCell>
        <mxCell id="EbjDFUz-OWnhSn3aXGN4-16" value="Calcular bolivianos = dollars * (input del usuario)&lt;div&gt;&lt;br&gt;&lt;/div&gt;" style="whiteSpace=wrap;html=1;" parent="1" vertex="1">
          <mxGeometry x="500" y="600" width="130" height="70" as="geometry" />
        </mxCell>
        <mxCell id="EbjDFUz-OWnhSn3aXGN4-20" style="edgeStyle=none;rounded=0;orthogonalLoop=1;jettySize=auto;html=1;exitX=0.5;exitY=1;exitDx=0;exitDy=0;entryX=0.5;entryY=0;entryDx=0;entryDy=0;" parent="1" source="EbjDFUz-OWnhSn3aXGN4-18" target="EbjDFUz-OWnhSn3aXGN4-21" edge="1">
          <mxGeometry relative="1" as="geometry">
            <mxPoint x="248" y="670" as="targetPoint" />
          </mxGeometry>
        </mxCell>
        <mxCell id="EbjDFUz-OWnhSn3aXGN4-18" value="El monto ingresado no es válido&amp;nbsp;&lt;div&gt;&lt;br&gt;&lt;/div&gt;&lt;div&gt;&lt;br&gt;&lt;/div&gt;" style="whiteSpace=wrap;html=1;" parent="1" vertex="1">
          <mxGeometry x="227.5" y="630" width="125" height="75" as="geometry" />
        </mxCell>
        <mxCell id="EbjDFUz-OWnhSn3aXGN4-27" style="edgeStyle=elbowEdgeStyle;rounded=0;orthogonalLoop=1;jettySize=auto;html=1;exitX=0.5;exitY=1;exitDx=0;exitDy=0;entryX=0;entryY=0.5;entryDx=0;entryDy=0;" parent="1" target="zWWd3TG351_CrGWMwTUh-47" edge="1">
          <mxGeometry relative="1" as="geometry">
            <mxPoint x="280" y="790" as="sourcePoint" />
            <mxPoint x="410" y="900" as="targetPoint" />
          </mxGeometry>
        </mxCell>
        <mxCell id="EbjDFUz-OWnhSn3aXGN4-21" value="Debe ser un número positivo" style="whiteSpace=wrap;html=1;" parent="1" vertex="1">
          <mxGeometry x="230" y="720" width="120" height="60" as="geometry" />
        </mxCell>
        <mxCell id="EbjDFUz-OWnhSn3aXGN4-22" style="edgeStyle=none;rounded=0;orthogonalLoop=1;jettySize=auto;html=1;exitX=0.75;exitY=1;exitDx=0;exitDy=0;" parent="1" source="EbjDFUz-OWnhSn3aXGN4-21" target="EbjDFUz-OWnhSn3aXGN4-21" edge="1">
          <mxGeometry relative="1" as="geometry" />
        </mxCell>
        <mxCell id="EbjDFUz-OWnhSn3aXGN4-24" value="dólares son aproximadamente bolivianos bolivianos" style="whiteSpace=wrap;html=1;" parent="1" vertex="1">
          <mxGeometry x="505" y="700" width="120" height="60" as="geometry" />
        </mxCell>
        <mxCell id="zWWd3TG351_CrGWMwTUh-37" style="rounded=0;orthogonalLoop=1;jettySize=auto;html=1;exitX=0.5;exitY=1;exitDx=0;exitDy=0;entryX=0.5;entryY=0;entryDx=0;entryDy=0;elbow=vertical;" edge="1" parent="1" source="zWWd3TG351_CrGWMwTUh-23" target="zWWd3TG351_CrGWMwTUh-26">
          <mxGeometry relative="1" as="geometry" />
        </mxCell>
        <mxCell id="zWWd3TG351_CrGWMwTUh-23" value="Mostrar mensaje &quot;Dolar actual&quot;&amp;nbsp;" style="whiteSpace=wrap;html=1;" vertex="1" parent="1">
          <mxGeometry x="390" y="290" width="120" height="60" as="geometry" />
        </mxCell>
        <mxCell id="zWWd3TG351_CrGWMwTUh-38" style="edgeStyle=none;rounded=0;orthogonalLoop=1;jettySize=auto;html=1;exitX=0.5;exitY=1;exitDx=0;exitDy=0;elbow=vertical;entryX=0.5;entryY=0;entryDx=0;entryDy=0;" edge="1" parent="1" source="zWWd3TG351_CrGWMwTUh-26" target="zWWd3TG351_CrGWMwTUh-43">
          <mxGeometry relative="1" as="geometry">
            <mxPoint x="450" y="460" as="targetPoint" />
          </mxGeometry>
        </mxCell>
        <mxCell id="zWWd3TG351_CrGWMwTUh-26" value="Input del usuario:&amp;nbsp;&lt;div&gt;Ejemplo &quot;9&quot;&lt;/div&gt;" style="whiteSpace=wrap;html=1;" vertex="1" parent="1">
          <mxGeometry x="390" y="370" width="120" height="60" as="geometry" />
        </mxCell>
        <mxCell id="zWWd3TG351_CrGWMwTUh-34" value="" style="rounded=0;orthogonalLoop=1;jettySize=auto;html=1;exitX=0.75;exitY=1;exitDx=0;exitDy=0;entryX=0.431;entryY=-0.043;entryDx=0;entryDy=0;entryPerimeter=0;elbow=vertical;edgeStyle=elbowEdgeStyle;" edge="1" parent="1" target="EbjDFUz-OWnhSn3aXGN4-16">
          <mxGeometry relative="1" as="geometry">
            <mxPoint x="487.5" y="510" as="sourcePoint" />
            <mxPoint x="526.3199999999999" y="538.8399999999999" as="targetPoint" />
          </mxGeometry>
        </mxCell>
        <mxCell id="zWWd3TG351_CrGWMwTUh-35" style="edgeStyle=orthogonalEdgeStyle;rounded=0;orthogonalLoop=1;jettySize=auto;html=1;exitX=0.5;exitY=1;exitDx=0;exitDy=0;entryX=0.5;entryY=0;entryDx=0;entryDy=0;elbow=vertical;" edge="1" parent="1" source="EbjDFUz-OWnhSn3aXGN4-24" target="zWWd3TG351_CrGWMwTUh-47">
          <mxGeometry relative="1" as="geometry">
            <mxPoint x="491.98" y="824" as="targetPoint" />
            <Array as="points">
              <mxPoint x="565" y="792" />
              <mxPoint x="493" y="792" />
              <mxPoint x="493" y="860" />
            </Array>
          </mxGeometry>
        </mxCell>
        <mxCell id="zWWd3TG351_CrGWMwTUh-43" value="¿dollars &amp;lt; 0?" style="rhombus;whiteSpace=wrap;html=1;" vertex="1" parent="1">
          <mxGeometry x="410" y="470" width="80" height="80" as="geometry" />
        </mxCell>
        <mxCell id="zWWd3TG351_CrGWMwTUh-45" value="No" style="text;html=1;align=center;verticalAlign=middle;resizable=0;points=[];autosize=1;strokeColor=none;fillColor=none;" vertex="1" parent="1">
          <mxGeometry x="510" y="528" width="40" height="30" as="geometry" />
        </mxCell>
        <mxCell id="zWWd3TG351_CrGWMwTUh-46" value="Yes" style="text;html=1;align=center;verticalAlign=middle;resizable=0;points=[];autosize=1;strokeColor=none;fillColor=none;" vertex="1" parent="1">
          <mxGeometry x="340" y="538" width="40" height="30" as="geometry" />
        </mxCell>
        <mxCell id="zWWd3TG351_CrGWMwTUh-47" value="FIN DEL PROGRAMA" style="ellipse;whiteSpace=wrap;html=1;" vertex="1" parent="1">
          <mxGeometry x="400" y="850" width="110" height="80" as="geometry" />
        </mxCell>
      </root>
    </mxGraphModel>
  </diagram>
</mxfile>
